<svg width="14" height="14" viewBox="0 0 14 14" fill="none" xmlns="http://www.w3.org/2000/svg">
<path d="M6.75 0.398438C10.3623 0.398438 13.2891 3.3252 13.2891 6.9375C13.2891 10.5498 10.3623 13.4766 6.75 13.4766C3.1377 13.4766 0.210937 10.5498 0.210937 6.9375C0.210937 3.3252 3.1377 0.398438 6.75 0.398438ZM6.75 12.2109C9.65039 12.2109 12.0234 9.86426 12.0234 6.9375C12.0234 4.03711 9.65039 1.66406 6.75 1.66406C3.82324 1.66406 1.47656 4.03711 1.47656 6.9375C1.47656 9.86426 3.82324 12.2109 6.75 12.2109ZM8.3584 9.46875L6.11719 7.83398C6.03809 7.78125 6.01172 7.67578 6.01172 7.59668V3.24609C6.01172 3.08789 6.14355 2.92969 6.32812 2.92969H7.17187C7.33008 2.92969 7.48828 3.08789 7.48828 3.24609V6.99023L9.22851 8.28223C9.38672 8.3877 9.41309 8.57227 9.30762 8.73047L8.80664 9.38965C8.70117 9.54785 8.5166 9.57422 8.3584 9.46875Z" fill="#22C55E"/>
</svg>
