<?xml version="1.0" encoding="UTF-8" standalone="no" ?>
<!DOCTYPE svg PUBLIC "-//W3C//DTD SVG 1.1//EN" "http://www.w3.org/Graphics/SVG/1.1/DTD/svg11.dtd">
<svg xmlns="http://www.w3.org/2000/svg" xmlns:xlink="http://www.w3.org/1999/xlink" version="1.1" width="1000" height="1000" viewBox="0 0 1100 1080" xml:space="preserve">
<desc>Created with Fabric.js 5.2.4</desc>
<defs>
</defs>
<g transform="matrix(1 0 0 1 540 540)" id="e23145a3-fb31-496c-8935-e161b66a5b80"  >
<rect style="stroke: none; stroke-width: 1; stroke-dasharray: none; stroke-linecap: butt; stroke-dashoffset: 0; stroke-linejoin: miter; stroke-miterlimit: 4; fill: rgb(255,255,255); fill-rule: nonzero; opacity: 1; visibility: hidden;" vector-effect="non-scaling-stroke"  x="-540" y="-540" rx="0" ry="0" width="1080" height="1080" />
</g>
<g transform="matrix(1 0 0 1 540 540)" id="aed20bc2-d41f-4ca5-a727-1f475dcb0c07"  >
</g>
<g transform="matrix(1 0 0 1 462.65 105.12)"  >
<path style="stroke: rgb(0,0,0); stroke-width: 0; stroke-dasharray: none; stroke-linecap: butt; stroke-dashoffset: 0; stroke-linejoin: miter; stroke-miterlimit: 4; fill: rgb(0,0,0); fill-rule: nonzero; opacity: 1;" vector-effect="non-scaling-stroke"  transform=" translate(-487.9, -257)" d="M 96 194.5 L 96 226 L 102 226 C 109.9 226 117.1 224.4 124.9 220.9 C 133.3 217.1 145 205.3 150.3 195.4 C 154.60000000000002 187.20000000000002 158 175 158 167.8 L 158 163 L 96 163 L 96 194.5 z M 428.1 223 L 423.90000000000003 228 L 428.3 228 C 432.1 228 433.6 227.3 439 223 L 445.3 218 L 432.3 218 L 428.1 223 z M 571.2 223 C 575.4000000000001 227.9 575.6 228 581 228 C 586.4 228 586.6 227.9 590.8 223 L 595.0999999999999 218 L 591 218 C 588.4 218 585.9 218.8 584 220.2 L 581 222.39999999999998 L 578 220.2 C 576.1 218.79999999999998 573.6 218 571 218 L 566.9 218 L 571.1999999999999 223 z M 33 257 L 33 288 L 96 288 L 96 282.1 C 96 266.90000000000003 91.4 256 80.2 245.00000000000003 C 74.3 239.30000000000004 70.5 236.50000000000003 64 233.30000000000004 C 55.2 229.00000000000003 44.1 226.00000000000003 37.1 226.00000000000003 L 33 226.00000000000003 L 33 257 z M 158.5 228.9 C 158.2 230.5 158.4 235.4 158.9 239.70000000000002 C 161.20000000000002 256.5 172.1 271.20000000000005 188.70000000000002 279.8 C 197.9 284.6 209.8 288 217.20000000000002 288 L 222.00000000000003 288 L 222.00000000000003 226 L 159.20000000000005 226 L 158.50000000000006 228.9 z M 802.6 232.5 C 787.2 238 781.4 255.3 790.3000000000001 268.7 C 800.3000000000001 283.59999999999997 824.5000000000001 283.3 834.6 268 C 836.6 265 837.4 262.3 837.8000000000001 257 C 838.2 250.9 837.9000000000001 249.4 835.6 244.5 C 832.7 238.7 827.7 234.4 821.1 232.2 C 816.5 230.6 807.4 230.79999999999998 802.6 232.5 z M 820.5 245 C 825.2 249.4 826.1 257.9 822.4 263.6 C 820.1 267.1 814.6 269.3 810 268.5 C 798.8 266.6 795.5 250.6 805 244.2 C 809.5 241.1 816.8 241.5 820.5 245 z M 265 255.5 L 265 279 L 301 279 L 301 268 L 278 268 L 278 232 L 265 232 L 265 255.5 z M 308 255.5 L 308 279 L 345 279 L 345 268 L 321 268 L 321 260 L 342 260 L 342 250 L 321 250 L 321 242 L 344 242 L 344 232 L 308 232 L 308 255.5 z M 352 255.5 L 352 279 L 365 279 L 365 273.2 C 365 268.09999999999997 365.4 267 367.8 264.7 L 370.6 262 L 377.3 270.5 L 384 279 L 391.5 279 C 397.2 279 398.9 278.7 398.4 277.8 C 398 277.1 393.4 271.2 388.29999999999995 264.6 L 378.99999999999994 252.50000000000003 L 383.29999999999995 248.00000000000003 C 385.59999999999997 245.50000000000003 389.9 240.90000000000003 392.99999999999994 237.70000000000002 L 398.3999999999999 232.00000000000003 L 383.49999999999994 232.00000000000003 L 374.29999999999995 241.70000000000002 L 365.09999999999997 251.50000000000003 L 364.99999999999994 241.70000000000002 L 364.99999999999994 232 L 351.99999999999994 232 L 351.99999999999994 255.5 z M 414 253.6 C 408.8 265.5 404.2 276.1 403.8 277.1 C 403.1 278.8 403.6 279 409.8 279 L 416.6 279 L 418.1 274.7 L 419.70000000000005 270.5 L 430.1 270.2 L 440.6 269.9 L 442.1 274.2 L 443.70000000000005 278.5 L 450.30000000000007 278.8 C 455.30000000000007 279 457.00000000000006 278.8 456.9000000000001 277.8 C 456.9000000000001 277.1 452.5000000000001 266.6 447.1000000000001 254.5 L 437.2000000000001 232.5 L 430.4000000000001 232.2 L 423.5000000000001 232 L 414.0000000000001 253.6 z M 435.4 257.7 C 436.09999999999997 259.9 435.9 260 430.09999999999997 260 L 424.09999999999997 260 L 425.59999999999997 256.5 C 426.29999999999995 254.6 427.7 251.3 428.59999999999997 249.2 L 430.2 245.5 L 432.5 250.5 C 433.7 253.2 435 256.5 435.4 257.7 z M 463 255.5 L 463 279 L 475.9 279 L 476.2 272.7 L 476.5 266.5 L 480.1 266.2 C 483.5 265.9 483.90000000000003 266.2 488 272.4 L 492.2 279 L 499.09999999999997 279 C 502.9 279 505.99999999999994 278.7 505.99999999999994 278.4 C 505.99999999999994 278.09999999999997 503.99999999999994 275 501.49999999999994 271.59999999999997 C 498.99999999999994 268.09999999999997 496.99999999999994 264.99999999999994 496.99999999999994 264.59999999999997 C 496.99999999999994 264.2 498.49999999999994 262.59999999999997 500.3999999999999 260.99999999999994 C 509.5999999999999 252.79999999999995 505.5999999999999 236.49999999999994 493.49999999999994 233.09999999999994 C 491.29999999999995 232.49999999999994 483.49999999999994 231.99999999999994 476.29999999999995 231.99999999999994 L 463 231.99999999999994 L 463 255.49999999999994 z M 488.5 243.2 C 493.1 245.29999999999998 493.1 253.29999999999998 488.4 255 C 487 255.6 483.59999999999997 256 480.9 256 L 476 256 L 476 249.7 C 476 246.2 476.3 243 476.7 242.7 C 477.8 241.6 485.7 241.89999999999998 488.5 243.2 z M 514 255.5 L 514 279 L 552.1 279 L 551.8000000000001 273.7 L 551.5000000000001 268.5 L 539.3000000000001 268.2 L 527.0000000000001 267.9 L 527.0000000000001 260 L 548.0000000000001 260 L 548.0000000000001 250 L 527.0000000000001 250 L 527.0000000000001 242 L 551.0000000000001 242 L 551.0000000000001 232 L 514.0000000000001 232 L 514.0000000000001 255.5 z M 559 255.5 L 559 279 L 571.9 279 L 572.1999999999999 266.9 L 572.4999999999999 254.7 L 582.4999999999999 266.8 L 592.4999999999999 279 L 603 279 L 603 232 L 590.1 232 L 589.8000000000001 243.9 L 589.5000000000001 255.8 L 579.7000000000002 243.9 L 569.9000000000002 232 L 559 232 L 559 255.5 z M 639 255.5 L 639 279 L 677 279 L 677 268 L 652 268 L 652 260 L 673 260 L 673 250 L 652 250 L 652 242 L 676 242 L 676 232 L 639 232 L 639 255.5 z M 683 246.3 C 683 263.90000000000003 684.3 269.2 689.9 274.3 C 697.3 281 711.6 281.6 719.6999999999999 275.40000000000003 C 725.9999999999999 270.6 727.1999999999999 266.70000000000005 727.8 248.30000000000004 L 728.3 232.00000000000003 L 714 232.00000000000003 L 714 247.00000000000003 C 714 255.90000000000003 713.5 262.90000000000003 712.9 264.40000000000003 C 710.6 269.3 703.1999999999999 270.20000000000005 699 266.00000000000006 C 697.2 264.20000000000005 697 262.6000000000001 697 248.00000000000006 L 697 232.00000000000006 L 683 232.00000000000006 L 683 246.30000000000007 z M 737 255.4 L 737 279 L 750 279 L 750 265.9 L 753.7 266.2 C 757 266.5 757.9000000000001 267.2 761.8000000000001 272.7 L 766.1 279 L 773.1 279 C 778.5 279 779.9 278.7 779.3000000000001 277.7 C 778.9000000000001 277.09999999999997 776.7 273.8 774.3000000000001 270.4 L 770.1 264.29999999999995 L 773.1 262.09999999999997 C 778.8000000000001 257.9 780.7 248.39999999999998 777.3000000000001 241.29999999999995 C 776.4000000000001 239.39999999999995 773.9000000000001 236.59999999999997 771.7 235.19999999999996 C 767.8000000000001 232.59999999999997 767 232.49999999999997 752.3000000000001 232.19999999999996 L 737.0000000000001 231.79999999999995 L 737.0000000000001 255.39999999999995 z M 764.1 244.9 C 766.7 248 766.5 250.6 763.5 253.5 C 761.5 255.6 760.1 256 755.5 256 L 750 256 L 750 241.8 L 756.1 242.20000000000002 C 761 242.60000000000002 762.7 243.10000000000002 764.1 244.9 z M 847 255.4 L 847 279 L 860 279 L 860 267.3 L 867.9 266.6 C 876.9 265.8 883.1999999999999 263.1 886.4 258.70000000000005 C 888 256.50000000000006 888.5 254.30000000000004 888.5 249.60000000000005 C 888.5 242.10000000000005 887 239.00000000000006 881.7 235.30000000000004 C 877.8000000000001 232.60000000000005 877.2 232.50000000000003 862.3000000000001 232.20000000000005 L 847.0000000000001 231.80000000000004 L 847.0000000000001 255.40000000000003 z M 874.1 244.9 C 876.7 248 876.5 250.6 873.5 253.5 C 871.5 255.6 870.1 256 865.5 256 L 860 256 L 860 241.8 L 866.1 242.20000000000002 C 871 242.60000000000002 872.7 243.10000000000002 874.1 244.9 z M 907.1 236.2 C 906.1 238.6 901.6 248.79999999999998 897.1 258.9 C 892.7 269 889 277.7 889 278.2 C 889 278.59999999999997 891.9 279 895.4 279 L 901.8 279 L 903.5999999999999 274.5 L 905.3 270 L 925.8 270 L 927.5999999999999 274.5 L 929.3 279 L 936.1999999999999 279 C 939.9999999999999 279 942.9999999999999 278.6 942.8 278.1 C 942.6999999999999 277.70000000000005 938 267.1 932.5 254.70000000000002 L 922.5 232.00000000000003 L 908.9 232.00000000000003 L 907.1 236.20000000000002 z M 918.4 251.89999999999998 C 919.8 255.49999999999997 921 258.7 921 259.2 C 921 259.59999999999997 918.5 260 915.5 260 C 912.5 260 910 259.7 910 259.3 C 910 258.2 915.3 244.9 915.6 245.20000000000002 C 915.7 245.4 917 248.4 918.4 251.9 z M 139 289.6 C 130.6 291.8 123.2 295.90000000000003 116.8 301.8 C 105.89999999999999 311.90000000000003 97.5 329.2 96.3 344.1 L 95.7 351 L 159 351 L 158.8 319.7 L 158.5 288.5 L 151.5 288.3 C 147.7 288.2 142 288.8 139 289.6 z" stroke-linecap="round" />
</g>
</svg>