<svg width="18" height="18" viewBox="0 0 18 18" fill="none" xmlns="http://www.w3.org/2000/svg">
<path d="M7.14001 9.875H1.01501C0.78295 9.875 0.560391 9.96719 0.396296 10.1313C0.232202 10.2954 0.140015 10.5179 0.140015 10.75V16.875C0.140015 17.1071 0.232202 17.3296 0.396296 17.4937C0.560391 17.6578 0.78295 17.75 1.01501 17.75H7.14001C7.37208 17.75 7.59464 17.6578 7.75873 17.4937C7.92283 17.3296 8.01501 17.1071 8.01501 16.875V10.75C8.01501 10.5179 7.92283 10.2954 7.75873 10.1313C7.59464 9.96719 7.37208 9.875 7.14001 9.875ZM6.26501 16H1.89001V11.625H6.26501V16ZM16.765 0.25H10.64C10.408 0.25 10.1854 0.342187 10.0213 0.506282C9.8572 0.670376 9.76501 0.892936 9.76501 1.125V7.25C9.76501 7.48206 9.8572 7.70462 10.0213 7.86872C10.1854 8.03281 10.408 8.125 10.64 8.125H16.765C16.9971 8.125 17.2196 8.03281 17.3837 7.86872C17.5478 7.70462 17.64 7.48206 17.64 7.25V1.125C17.64 0.892936 17.5478 0.670376 17.3837 0.506282C17.2196 0.342187 16.9971 0.25 16.765 0.25ZM15.89 6.375H11.515V2H15.89V6.375ZM16.765 9.875H10.64C10.408 9.875 10.1854 9.96719 10.0213 10.1313C9.8572 10.2954 9.76501 10.5179 9.76501 10.75V16.875C9.76501 17.1071 9.8572 17.3296 10.0213 17.4937C10.1854 17.6578 10.408 17.75 10.64 17.75H16.765C16.9971 17.75 17.2196 17.6578 17.3837 17.4937C17.5478 17.3296 17.64 17.1071 17.64 16.875V10.75C17.64 10.5179 17.5478 10.2954 17.3837 10.1313C17.2196 9.96719 16.9971 9.875 16.765 9.875ZM15.89 16H11.515V11.625H15.89V16ZM7.14001 0.25H1.01501C0.78295 0.25 0.560391 0.342187 0.396296 0.506282C0.232202 0.670376 0.140015 0.892936 0.140015 1.125V7.25C0.140015 7.48206 0.232202 7.70462 0.396296 7.86872C0.560391 8.03281 0.78295 8.125 1.01501 8.125H7.14001C7.37208 8.125 7.59464 8.03281 7.75873 7.86872C7.92283 7.70462 8.01501 7.48206 8.01501 7.25V1.125C8.01501 0.892936 7.92283 0.670376 7.75873 0.506282C7.59464 0.342187 7.37208 0.25 7.14001 0.25ZM6.26501 6.375H1.89001V2H6.26501V6.375Z" fill="white"/>
</svg>
