<svg width="160" height="34" viewBox="0 0 160 34" fill="none" xmlns="http://www.w3.org/2000/svg">
<mask id="mask0_2902_14461" style="mask-type:alpha" maskUnits="userSpaceOnUse" x="0" y="0" width="160" height="34">
<path fill-rule="evenodd" clip-rule="evenodd" d="M11.8461 5.51217L11.8915 11.0243L13.3525 11.0099C16.4162 10.9799 18.866 9.56183 20.7866 6.70661C21.9099 5.03647 22.8063 2.32466 22.8063 0.596356V0H17.3035H11.8007L11.8461 5.51217ZM69.9967 10.5035L69.1891 11.4584H69.9904C70.6834 11.4584 70.9291 11.3493 71.8084 10.6514C72.3678 10.2077 72.8253 9.77798 72.8253 9.69655C72.8253 9.6153 72.3707 9.54864 71.8148 9.54864H70.8045L69.9967 10.5035ZM94.3112 9.72607C94.3112 9.82381 94.6304 10.2535 95.0205 10.6809C95.7003 11.4259 95.7705 11.4582 96.6964 11.4552C97.6501 11.4521 97.6729 11.44 98.4165 10.5438L99.1701 9.63544L98.5322 9.58075C97.9376 9.52971 97.7497 9.60975 96.7856 10.325C96.6234 10.4455 96.4183 10.3585 96.0699 10.0212C95.7184 9.6811 95.4035 9.54864 94.9463 9.54864C94.597 9.54864 94.3112 9.6285 94.3112 9.72607ZM22.9209 11.0533C22.709 11.2672 22.8039 13.4592 23.0695 14.4893C23.7216 17.0179 25.5647 19.2685 28.0898 20.6188C29.6259 21.4405 31.704 22.0487 32.9751 22.0487H33.807V16.4931V10.9375H28.4213C25.459 10.9375 22.9839 10.9896 22.9209 11.0533ZM0.845366 16.6233L0.890744 22.1355H6.39112H11.8915L11.9422 21.0678C12.1115 17.5035 9.95931 14.1894 6.24501 12.2957C4.97821 11.6499 2.92055 11.1111 1.72027 11.1111H0.799988L0.845366 16.6233ZM135.563 12.1313C134.213 12.578 132.956 13.7776 132.642 14.9193C132.059 17.041 132.911 19.123 134.758 20.0898C135.505 20.4808 135.873 20.5573 137.025 20.5608C138.229 20.5646 138.515 20.5016 139.323 20.0527C141.209 19.0056 142.006 17.0132 141.38 14.9059C141.12 14.0269 140.177 12.9292 139.284 12.4653C138.512 12.0639 136.352 11.87 135.563 12.1313ZM41.3701 16.3195V20.4862H44.55H47.7299V19.5313V18.5764H45.7532H43.7765V15.3646V12.1528H42.5733H41.3701V16.3195ZM48.9331 16.3195V20.4862H52.1989H55.4648V19.5313V18.5764H53.3162H51.1676V17.882V17.1875H52.9724H54.7772V16.2327V15.2778H52.9621H51.1468L51.2003 14.6268L51.2535 13.9757L53.2732 13.9268L55.2929 13.878V13.0153V12.1528H52.113H48.9331V16.3195ZM56.668 16.3275V20.502L57.8282 20.4507L58.9884 20.3994L59.039 19.3374C59.0794 18.4895 59.1705 18.1985 59.4907 17.8947L59.8919 17.5141L61.0578 19L62.2239 20.4862H63.5916H64.9593L64.4715 19.8351C64.2031 19.4771 63.4205 18.4483 62.7323 17.5492C62.0439 16.6499 61.4818 15.8686 61.483 15.8131C61.4841 15.7573 62.1974 14.9306 63.0682 13.9757L64.6512 12.2396L63.3996 12.1884L62.1481 12.1372L60.6188 13.7509L59.0895 15.3646L59.0819 13.7587L59.0744 12.1528H57.8712H56.668V16.3275ZM67.3679 16.196C66.399 18.4174 65.6061 20.2914 65.6061 20.3605C65.6061 20.4296 66.1283 20.4843 66.7663 20.482L67.9266 20.478L68.3023 19.6139L68.6782 18.75H70.3316H71.985L72.3421 19.6181L72.6993 20.4862H73.8795C74.5287 20.4862 75.06 20.4275 75.0602 20.356C75.0605 20.2844 74.2676 18.4113 73.2984 16.1936L71.5362 12.1615L70.333 12.1594L69.1298 12.1571L67.3679 16.196ZM76.0912 16.3275V20.502L77.2514 20.4507L78.4116 20.3994L78.4629 19.3143L78.5139 18.2292H79.0872C79.6035 18.2292 79.7328 18.3414 80.3883 19.3577L81.1163 20.4862H82.3953C83.3747 20.4862 83.6435 20.4353 83.5421 20.2691C83.4694 20.1499 83.072 19.5639 82.6593 18.9671L81.9088 17.8822L82.4611 17.4127C83.7039 16.3565 83.8328 14.4188 82.7403 13.215C81.9584 12.3533 81.1941 12.1608 78.5406 12.1566L76.0912 12.1528V16.3275ZM84.8574 16.3195V20.4862H88.2092H91.561V19.5313V18.5764H89.4124H87.2638V17.882V17.1875H89.0686H90.8734V16.2327V15.2778H89.0686H87.2638V14.5834V13.8889H89.3264H91.3891V13.0209V12.1528H88.1232H84.8574V16.3195ZM92.7642 16.3195V20.4862H93.8763H94.9884L95.0365 18.2865L95.0846 16.0867L96.8724 18.2943L98.6601 20.502L99.6226 20.4506L100.585 20.3994L100.631 16.2761L100.677 12.1528H99.4762H98.2752L98.2269 14.2796L98.1786 16.4063L96.4597 14.2822L94.7409 12.158L93.7525 12.1554L92.7642 12.1528V16.3195ZM106.859 16.3195V20.4862H110.125H113.391V19.5313V18.5764H111.242H109.093V17.8879V17.1993L110.941 17.15L112.789 17.1007V16.2327V15.3646L110.931 15.3153L109.073 15.2658L109.126 14.6209L109.179 13.9757L111.199 13.9268L113.219 13.878V13.0153V12.1528H110.039H106.859V16.3195ZM114.455 15.0608C114.536 18.3204 114.734 19.0054 115.848 19.8629C117.288 20.9726 120.211 20.7822 121.32 19.5063C122.104 18.6033 122.222 18.0662 122.297 15.0608L122.368 12.1528H121.145H119.922V14.6443C119.922 17.9893 119.691 18.5764 118.375 18.5764C117.059 18.5764 116.828 17.9893 116.828 14.6443V12.1528H115.605H114.382L114.455 15.0608ZM123.876 16.3275V20.502L125.036 20.4507L126.196 20.3994L126.247 19.3143L126.298 18.2292H126.863C127.366 18.2292 127.511 18.353 128.186 19.3577L128.944 20.4862H130.201C131.16 20.4862 131.429 20.4346 131.333 20.2691C131.264 20.1499 130.866 19.5643 130.449 18.9681L129.691 17.8841L130.227 17.4283C130.934 16.8278 131.267 16.1455 131.267 15.2978C131.267 13.9717 130.673 13.0457 129.462 12.4809C128.897 12.2176 128.338 12.1598 126.325 12.1566L123.876 12.1528V16.3275ZM142.995 16.2761L143.041 20.3994L144.201 20.4507L145.361 20.502V19.3657V18.2292L146.694 18.2254C148.244 18.2209 149.174 17.8731 149.87 17.0379C150.79 15.9334 150.647 13.9969 149.575 13.0462C148.74 12.3059 148.019 12.1549 145.315 12.1538L142.949 12.1528L142.995 16.2761ZM153.892 12.2894C153.768 12.492 150.346 20.3349 150.346 20.4164C150.346 20.4547 150.877 20.4862 151.527 20.4862H152.707L153.064 19.6181L153.421 18.75H155.078H156.736L157.099 19.6181L157.462 20.4862H158.631C159.274 20.4862 159.8 20.4106 159.8 20.3183C159.8 20.2259 159.011 18.3509 158.047 16.1516L156.293 12.1528H155.135C154.497 12.1528 153.938 12.2143 153.892 12.2894ZM137.886 14.1389C139.467 14.8061 139.638 17.5346 138.148 18.3131C137.079 18.8716 135.628 18.4994 135.137 17.5405C134.743 16.7704 134.799 15.4247 135.249 14.8467C135.632 14.3542 136.449 13.9077 136.988 13.8957C137.156 13.892 137.56 14.0014 137.886 14.1389ZM80.7615 14.3499C81.1532 14.7078 81.169 15.5806 80.7914 16.0019C80.5776 16.2407 80.2574 16.3195 79.5023 16.3195H78.4976V15.191V14.0625H79.4724C80.1382 14.0625 80.5468 14.1537 80.7615 14.3499ZM128.546 14.3499C128.938 14.7078 128.954 15.5806 128.576 16.0019C128.362 16.2407 128.042 16.3195 127.287 16.3195H126.282V15.191V14.0625H127.257C127.923 14.0625 128.331 14.1537 128.546 14.3499ZM147.768 14.4098C147.957 14.6007 148.112 14.9523 148.112 15.191C148.112 15.9549 147.557 16.3195 146.393 16.3195H145.361V15.191V14.0625H146.393C147.195 14.0625 147.5 14.1396 147.768 14.4098ZM70.8314 15.7851C71.0772 16.3985 71.2783 16.9257 71.2783 16.957C71.2783 16.9884 70.8529 17.0139 70.333 17.0139C69.813 17.0139 69.3876 16.9757 69.3876 16.929C69.3876 16.7645 70.2902 14.569 70.3371 14.6193C70.3632 14.6473 70.5856 15.1719 70.8314 15.7851ZM155.92 16.6233C156.036 16.9969 155.999 17.0139 155.066 17.0139C154.206 17.0139 154.105 16.9782 154.212 16.7101C154.278 16.5429 154.496 15.9818 154.696 15.4631L155.059 14.5198L155.429 15.3763C155.633 15.8473 155.854 16.4084 155.92 16.6233ZM19.6095 22.303C16.8853 22.911 14.6264 24.8631 13.104 27.9247C12.523 29.093 11.9774 31.2214 11.9774 32.3195V33.1598H17.3943H22.8111L22.7657 27.6476L22.7204 22.1355L21.689 22.1021C21.1218 22.0839 20.1861 22.1742 19.6095 22.303Z" fill="black"/>
</mask>
<g mask="url(#mask0_2902_14461)">
<rect x="0.799988" width="159.167" height="33.1598" fill="#2A3342"/>
<rect x="0.799988" width="37.3048" height="33.1598" fill="#22C55E"/>
</g>
</svg>
