<svg width="926" height="191" viewBox="0 0 926 191" fill="none" xmlns="http://www.w3.org/2000/svg">
<path fill-rule="evenodd" clip-rule="evenodd" d="M64.264 31.75L64.528 63.5L73.028 63.417C90.852 63.244 105.104 55.076 116.278 38.63C122.813 29.01 128.028 13.39 128.028 3.435V0H96.014H64L64.264 31.75ZM402.572 60.5L397.873 66H402.535C406.567 66 407.996 65.372 413.112 61.352C416.366 58.796 419.028 56.321 419.028 55.852C419.028 55.384 416.383 55 413.149 55H407.271L402.572 60.5ZM544.028 56.022C544.028 56.585 545.885 59.06 548.155 61.522C552.11 65.813 552.518 65.999 557.905 65.982C563.453 65.964 563.586 65.894 567.912 60.732L572.296 55.5L568.585 55.185C565.126 54.891 564.033 55.352 558.424 59.472C557.48 60.166 556.287 59.665 554.26 57.722C552.215 55.763 550.383 55 547.723 55C545.691 55 544.028 55.46 544.028 56.022ZM128.695 63.667C127.462 64.899 128.014 77.525 129.559 83.458C133.353 98.023 144.076 110.986 158.766 118.764C167.703 123.497 179.793 127 187.188 127H192.028V95V63H160.695C143.461 63 129.061 63.3 128.695 63.667ZM0.264 95.75L0.528 127.5H32.528H64.528L64.823 121.35C65.808 100.82 53.287 81.731 31.678 70.823C24.308 67.103 12.337 64 5.354 64H0L0.264 95.75ZM784.022 69.876C776.168 72.449 768.856 79.359 767.03 85.935C763.635 98.156 768.591 110.148 779.34 115.717C783.685 117.969 785.828 118.41 792.528 118.43C799.535 118.452 801.195 118.089 805.898 115.503C816.871 109.472 821.504 97.996 817.867 85.858C816.35 80.795 810.865 74.472 805.671 71.8C801.177 69.488 788.613 68.371 784.022 69.876ZM236.028 94V118H254.528H273.028V112.5V107H261.528H250.028V88.5V70H243.028H236.028V94ZM280.028 94V118H299.028H318.028V112.5V107H305.528H293.028V103V99H303.528H314.028V93.5V88H303.468H292.907L293.218 84.25L293.528 80.5L305.278 80.218L317.028 79.937V74.968V70H298.528H280.028V94ZM325.028 94.046V118.091L331.778 117.796L338.528 117.5L338.822 111.383C339.057 106.499 339.587 104.823 341.45 103.073L343.784 100.881L350.567 109.44L357.351 118H365.308H373.265L370.427 114.25C368.866 112.188 364.313 106.262 360.309 101.083C356.304 95.903 353.034 91.403 353.041 91.083C353.047 90.762 357.197 86 362.263 80.5L371.473 70.5L364.191 70.205L356.91 69.91L348.013 79.205L339.116 88.5L339.072 79.25L339.028 70H332.028H325.028V94.046ZM387.278 93.289C381.641 106.084 377.028 116.878 377.028 117.276C377.028 117.674 380.066 117.989 383.778 117.976L390.528 117.953L392.714 112.976L394.901 108H404.52H414.139L416.217 113L418.295 118H425.161C428.938 118 432.029 117.662 432.03 117.25C432.032 116.838 427.419 106.049 421.78 93.275L411.528 70.05L404.528 70.038L397.528 70.025L387.278 93.289ZM438.028 94.046V118.091L444.778 117.796L451.528 117.5L451.826 111.25L452.123 105H455.458C458.462 105 459.214 105.646 463.028 111.5L467.263 118H474.704C480.402 118 481.966 117.707 481.376 116.75C480.953 116.063 478.641 112.688 476.24 109.25L471.874 103.001L475.087 100.297C482.317 94.213 483.067 83.052 476.711 76.118C472.162 71.155 467.716 70.046 452.278 70.022L438.028 70V94.046ZM489.028 94V118H508.528H528.028V112.5V107H515.528H503.028V103V99H513.528H524.028V93.5V88H513.528H503.028V84V80H515.028H527.028V75V70H508.028H489.028V94ZM535.028 94V118H541.498H547.968L548.248 105.33L548.528 92.659L558.929 105.375L569.329 118.091L574.929 117.795L580.528 117.5L580.796 93.75L581.064 70H574.077H567.09L566.809 82.25L566.528 94.5L556.528 82.265L546.528 70.03L540.778 70.015L535.028 70V94ZM617.028 94V118H636.028H655.028V112.5V107H642.528H630.028V103.034V99.068L640.778 98.784L651.528 98.5V93.5V88.5L640.72 88.216L629.911 87.931L630.22 84.216L630.528 80.5L642.278 80.218L654.028 79.937V74.968V70H635.528H617.028V94ZM661.218 86.75C661.69 105.525 662.846 109.471 669.322 114.41C677.702 120.802 694.707 119.705 701.157 112.356C705.722 107.155 706.409 104.061 706.841 86.75L707.259 70H700.143H693.028V84.351C693.028 103.618 691.684 107 684.028 107C676.372 107 675.028 103.618 675.028 84.351V70H667.913H660.797L661.218 86.75ZM716.028 94.046V118.091L722.778 117.796L729.528 117.5L729.826 111.25L730.123 105H733.41C736.336 105 737.18 105.713 741.104 111.5L745.512 118H752.829C758.406 118 759.972 117.703 759.414 116.75C759.012 116.063 756.698 112.69 754.272 109.256L749.861 103.012L752.98 100.387C757.091 96.928 759.028 92.998 759.028 88.115C759.028 80.477 755.576 75.143 748.528 71.89C745.241 70.373 741.989 70.04 730.278 70.022L716.028 70V94.046ZM827.26 93.75L827.528 117.5L834.278 117.796L841.028 118.091V111.546V105L848.778 104.978C857.798 104.952 863.21 102.949 867.259 98.138C872.612 91.776 871.779 80.622 865.541 75.146C860.685 70.882 856.49 70.012 840.76 70.006L826.992 70L827.26 93.75ZM890.659 70.787C889.938 71.954 870.028 117.129 870.028 117.598C870.028 117.819 873.118 118 876.895 118H883.761L885.839 113L887.917 108H897.559H907.2L909.312 113L911.425 118H918.226C921.967 118 925.028 117.565 925.028 117.033C925.028 116.501 920.438 105.701 914.827 93.033L904.626 70H897.886C894.179 70 890.927 70.354 890.659 70.787ZM797.538 81.44C806.737 85.283 807.732 100.999 799.061 105.483C792.84 108.7 784.401 106.556 781.545 101.033C779.251 96.597 779.575 88.846 782.193 85.517C784.424 82.68 789.175 80.108 792.31 80.039C793.29 80.018 795.643 80.648 797.538 81.44ZM465.199 82.655C467.478 84.717 467.57 89.744 465.373 92.171C464.129 93.546 462.266 94 457.873 94H452.028V87.5V81H457.699C461.573 81 463.95 81.525 465.199 82.655ZM743.199 82.655C745.478 84.717 745.57 89.744 743.373 92.171C742.129 93.546 740.266 94 735.873 94H730.028V87.5V81H735.699C739.573 81 741.95 81.525 743.199 82.655ZM855.028 83C856.128 84.1 857.028 86.125 857.028 87.5C857.028 91.9 853.798 94 847.028 94H841.028V87.5V81H847.028C851.695 81 853.472 81.444 855.028 83ZM407.428 90.922C408.858 94.455 410.028 97.492 410.028 97.672C410.028 97.853 407.553 98 404.528 98C401.503 98 399.028 97.78 399.028 97.511C399.028 96.563 404.279 83.917 404.552 84.207C404.704 84.368 405.998 87.39 407.428 90.922ZM902.457 95.75C903.132 97.902 902.915 98 897.488 98C892.483 98 891.897 97.794 892.518 96.25C892.905 95.287 894.173 92.055 895.334 89.067L897.446 83.634L899.599 88.567C900.783 91.28 902.069 94.512 902.457 95.75ZM109.43 128.465C93.581 131.967 80.439 143.211 71.582 160.846C68.202 167.575 65.028 179.835 65.028 186.16V191H96.542H128.056L127.792 159.25L127.528 127.5L121.528 127.308C118.228 127.203 112.784 127.723 109.43 128.465Z" fill="black"/>
</svg>
