<svg width="22" height="19" viewBox="0 0 22 19" fill="none" xmlns="http://www.w3.org/2000/svg">
<path d="M15.265 16.4263H4.76501C4.06882 16.4263 3.40114 16.1497 2.90886 15.6574C2.41658 15.1651 2.14001 14.4975 2.14001 13.8013V6.80127C2.14001 6.56921 2.04783 6.34665 1.88373 6.18255C1.71964 6.01846 1.49708 5.92627 1.26501 5.92627C1.03295 5.92627 0.810391 6.01846 0.646296 6.18255C0.482202 6.34665 0.390015 6.56921 0.390015 6.80127L0.390015 13.8013C0.390015 14.9616 0.850951 16.0744 1.67142 16.8949C2.49189 17.7153 3.60469 18.1763 4.76501 18.1763H15.265C15.4971 18.1763 15.7196 18.0841 15.8837 17.92C16.0478 17.7559 16.14 17.5333 16.14 17.3013C16.14 17.0692 16.0478 16.8466 15.8837 16.6826C15.7196 16.5185 15.4971 16.4263 15.265 16.4263ZM18.765 0.67627H6.51501C5.81882 0.67627 5.15114 0.952831 4.65886 1.44511C4.16658 1.9374 3.89001 2.60508 3.89001 3.30127V12.0513C3.89001 12.7475 4.16658 13.4151 4.65886 13.9074C5.15114 14.3997 5.81882 14.6763 6.51501 14.6763H18.765C19.4612 14.6763 20.1289 14.3997 20.6212 13.9074C21.1135 13.4151 21.39 12.7475 21.39 12.0513V3.30127C21.39 2.60508 21.1135 1.9374 20.6212 1.44511C20.1289 0.952831 19.4612 0.67627 18.765 0.67627V0.67627ZM18.4063 2.42627L13.2613 7.57127C13.1799 7.65328 13.0831 7.71838 12.9765 7.7628C12.8699 7.80722 12.7555 7.83009 12.64 7.83009C12.5245 7.83009 12.4101 7.80722 12.3035 7.7628C12.1969 7.71838 12.1001 7.65328 12.0188 7.57127L6.87376 2.42627H18.4063ZM19.64 12.0513C19.64 12.2833 19.5478 12.5059 19.3837 12.67C19.2196 12.8341 18.9971 12.9263 18.765 12.9263H6.51501C6.28295 12.9263 6.06039 12.8341 5.8963 12.67C5.7322 12.5059 5.64001 12.2833 5.64001 12.0513V3.62502L10.785 8.77002C11.2772 9.2616 11.9444 9.53771 12.64 9.53771C13.3356 9.53771 14.0028 9.2616 14.495 8.77002L19.64 3.62502V12.0513Z" fill="white"/>
</svg>
