<svg width="11" height="14" viewBox="0 0 11 14" fill="none" xmlns="http://www.w3.org/2000/svg">
<path d="M4.78516 13.4238C0.935547 7.88672 0.25 7.30664 0.25 5.25C0.25 2.45508 2.49121 0.187501 5.3125 0.187501C8.10742 0.187501 10.375 2.45508 10.375 5.25C10.375 7.30664 9.66309 7.88672 5.81348 13.4238C5.57617 13.793 5.02246 13.793 4.78516 13.4238ZM5.3125 7.35938C6.47266 7.35938 7.42187 6.43652 7.42187 5.25C7.42187 4.08984 6.47266 3.14063 5.3125 3.14063C4.12598 3.14063 3.20312 4.08984 3.20312 5.25C3.20312 6.43652 4.12598 7.35938 5.3125 7.35938Z" fill="#22C55E"/>
</svg>
