<svg width="14" height="14" viewBox="0 0 14 14" fill="none" xmlns="http://www.w3.org/2000/svg">
<path d="M13.3545 9.73242C13.5654 9.83789 13.7236 10.0752 13.7236 10.3389C13.7236 10.3652 13.7236 10.418 13.7236 10.4707L13.0908 13.2129C13.0117 13.5029 12.7744 13.6875 12.4844 13.6875C5.70801 13.6875 0.25 8.22949 0.25 1.45313C0.25 1.16309 0.43457 0.925782 0.724609 0.84668L3.4668 0.213868C3.51953 0.213868 3.57227 0.187501 3.59863 0.187501C3.8623 0.187501 4.09961 0.345704 4.20508 0.583009L5.4707 3.53613C5.49707 3.61523 5.52344 3.69434 5.52344 3.77344C5.52344 3.98438 5.41797 4.16895 5.28613 4.27441L3.67773 5.59277C4.65332 7.64941 6.28809 9.28418 8.34473 10.2598L9.66309 8.65137C9.76855 8.51953 9.95312 8.41406 10.1377 8.41406C10.2432 8.41406 10.3223 8.44043 10.4014 8.4668L13.3545 9.73242Z" fill="#22C55E"/>
</svg>
