<svg width="18" height="18" viewBox="0 0 18 18" fill="none" xmlns="http://www.w3.org/2000/svg">
<path d="M2.76501 14.25H6.47501C6.59017 14.2507 6.70432 14.2286 6.81093 14.1851C6.91754 14.1415 7.0145 14.0774 7.09626 13.9963L13.1513 7.93251L15.6363 5.50001C15.7183 5.41866 15.7834 5.32189 15.8278 5.21526C15.8722 5.10864 15.8951 4.99427 15.8951 4.87876C15.8951 4.76325 15.8722 4.64888 15.8278 4.54225C15.7834 4.43563 15.7183 4.33885 15.6363 4.25751L11.9263 0.503758C11.8449 0.421745 11.7481 0.35665 11.6415 0.312228C11.5349 0.267805 11.4205 0.244934 11.305 0.244934C11.1895 0.244934 11.0751 0.267805 10.9685 0.312228C10.8619 0.35665 10.7651 0.421745 10.6838 0.503758L8.21626 2.98001L2.14376 9.04376C2.06267 9.12552 1.99851 9.22248 1.95496 9.32909C1.91142 9.4357 1.88935 9.54985 1.89001 9.66501V13.375C1.89001 13.6071 1.9822 13.8296 2.1463 13.9937C2.31039 14.1578 2.53295 14.25 2.76501 14.25ZM11.305 2.35876L13.7813 4.83501L12.5388 6.07751L10.0625 3.60126L11.305 2.35876ZM3.64001 10.0238L8.82876 4.83501L11.305 7.31126L6.11626 12.5H3.64001V10.0238ZM16.765 16H1.01501C0.78295 16 0.560391 16.0922 0.396296 16.2563C0.232202 16.4204 0.140015 16.6429 0.140015 16.875C0.140015 17.1071 0.232202 17.3296 0.396296 17.4937C0.560391 17.6578 0.78295 17.75 1.01501 17.75H16.765C16.9971 17.75 17.2196 17.6578 17.3837 17.4937C17.5478 17.3296 17.64 17.1071 17.64 16.875C17.64 16.6429 17.5478 16.4204 17.3837 16.2563C17.2196 16.0922 16.9971 16 16.765 16Z" fill="white"/>
</svg>
