<?xml version="1.0" standalone="no"?>
<!DOCTYPE svg PUBLIC "-//W3C//DTD SVG 20010904//EN"
 "http://www.w3.org/TR/2001/REC-SVG-20010904/DTD/svg10.dtd">
<svg version="1.0" xmlns="http://www.w3.org/2000/svg"
 width="986.000000pt" height="446.000000pt" viewBox="0 0 986.000000 446.000000"
 preserveAspectRatio="xMidYMid meet">

<g transform="translate(0.000000,446.000000) scale(0.100000,-0.100000)"
fill="#000000" stroke="none">
<path d="M960 2515 l0 -315 60 0 c79 0 151 16 229 51 84 38 201 156 254 255
43 82 77 204 77 276 l0 48 -310 0 -310 0 0 -315z"/>
<path d="M4281 2230 l-42 -50 44 0 c38 0 53 7 107 50 l63 50 -65 0 -65 0 -42
-50z"/>
<path d="M5712 2230 c42 -49 44 -50 98 -50 54 0 56 1 98 50 l43 50 -41 0 c-26
0 -51 -8 -70 -22 l-30 -22 -30 22 c-19 14 -44 22 -70 22 l-41 0 43 -50z"/>
<path d="M330 1890 l0 -310 315 0 315 0 0 59 c0 152 -46 261 -158 371 -59 57
-97 85 -162 117 -88 43 -199 73 -269 73 l-41 0 0 -310z"/>
<path d="M1585 2171 c-3 -16 -1 -65 4 -108 23 -168 132 -315 298 -401 92 -48
211 -82 285 -82 l48 0 0 310 0 310 -314 0 -314 0 -7 -29z"/>
<path d="M8026 2135 c-154 -55 -212 -228 -123 -362 100 -149 342 -146 443 7
20 30 28 57 32 110 4 61 1 76 -22 125 -29 58 -79 101 -145 123 -46 16 -137 14
-185 -3z m179 -125 c47 -44 56 -129 19 -186 -23 -35 -78 -57 -124 -49 -112 19
-145 179 -50 243 45 31 118 27 155 -8z"/>
<path d="M2650 1905 l0 -235 180 0 180 0 0 55 0 55 -115 0 -115 0 0 180 0 180
-65 0 -65 0 0 -235z"/>
<path d="M3080 1905 l0 -235 185 0 185 0 0 55 0 55 -120 0 -120 0 0 40 0 40
105 0 105 0 0 50 0 50 -105 0 -105 0 0 40 0 40 115 0 115 0 0 50 0 50 -180 0
-180 0 0 -235z"/>
<path d="M3520 1905 l0 -235 65 0 65 0 0 58 c0 51 4 62 28 85 l28 27 67 -85
67 -85 75 0 c57 0 74 3 69 12 -4 7 -50 66 -101 132 l-93 121 43 45 c23 25 66
71 97 103 l54 57 -74 0 -75 0 -92 -97 -92 -98 -1 98 0 97 -65 0 -65 0 0 -235z"/>
<path d="M4140 1924 c-52 -119 -98 -225 -102 -235 -7 -17 -2 -19 60 -19 l68 0
15 43 16 42 104 3 105 3 15 -43 16 -43 66 -3 c50 -2 67 0 66 10 0 7 -44 112
-98 233 l-99 220 -68 3 -69 2 -95 -216z m214 -41 c7 -22 5 -23 -53 -23 l-60 0
15 35 c7 19 21 52 30 73 l16 37 23 -50 c12 -27 25 -60 29 -72z"/>
<path d="M4630 1905 l0 -235 65 0 64 0 3 63 3 62 36 3 c34 3 38 0 79 -62 l42
-66 69 0 c38 0 69 3 69 6 0 3 -20 34 -45 68 -25 35 -45 66 -45 70 0 4 15 20
34 36 92 82 52 245 -69 279 -22 6 -100 11 -172 11 l-133 0 0 -235z m255 123
c46 -21 46 -101 -1 -118 -14 -6 -48 -10 -75 -10 l-49 0 0 63 c0 35 3 67 7 70
11 11 90 8 118 -5z"/>
<path d="M5140 1905 l0 -235 191 0 190 0 -3 53 -3 52 -122 3 -123 3 0 39 0 40
105 0 105 0 0 50 0 50 -105 0 -105 0 0 40 0 40 120 0 120 0 0 50 0 50 -185 0
-185 0 0 -235z"/>
<path d="M5590 1905 l0 -235 65 0 64 0 3 121 3 122 100 -121 100 -122 53 0 52
0 0 235 0 235 -65 0 -64 0 -3 -119 -3 -119 -98 119 -98 119 -54 0 -55 0 0
-235z"/>
<path d="M6390 1905 l0 -235 190 0 190 0 0 55 0 55 -125 0 -125 0 0 40 0 40
105 0 105 0 0 50 0 50 -105 0 -105 0 0 40 0 40 120 0 120 0 0 50 0 50 -185 0
-185 0 0 -235z"/>
<path d="M6830 1997 c0 -176 13 -229 69 -280 74 -67 217 -73 298 -11 63 48 75
87 81 271 l5 163 -72 0 -71 0 0 -150 c0 -89 -5 -159 -11 -174 -23 -49 -97 -58
-139 -16 -18 18 -20 34 -20 180 l0 160 -70 0 -70 0 0 -143z"/>
<path d="M7370 1906 l0 -236 65 0 65 0 0 66 0 65 37 -3 c33 -3 42 -10 81 -65
l43 -63 70 0 c54 0 68 3 62 13 -4 6 -26 39 -50 73 l-42 61 30 22 c57 42 76
137 42 208 -9 19 -34 47 -56 61 -39 26 -47 27 -194 30 l-153 4 0 -236z m271
105 c26 -31 24 -57 -6 -86 -20 -21 -34 -25 -80 -25 l-55 0 0 71 0 71 61 -4
c49 -4 66 -9 80 -27z"/>
<path d="M8470 1906 l0 -236 65 0 65 0 0 59 0 58 79 7 c90 8 153 35 185 79 16
22 21 44 21 91 0 75 -15 106 -68 143 -39 27 -45 28 -194 31 l-153 4 0 -236z
m271 105 c26 -31 24 -57 -6 -86 -20 -21 -34 -25 -80 -25 l-55 0 0 71 0 71 61
-4 c49 -4 66 -9 80 -27z"/>
<path d="M9071 2098 c-10 -24 -55 -126 -100 -227 -44 -101 -81 -188 -81 -193
0 -4 29 -8 64 -8 l64 0 18 45 17 45 103 0 102 0 18 -45 17 -45 69 0 c38 0 68
4 66 9 -1 4 -48 110 -103 234 l-100 227 -68 0 -68 0 -18 -42z m113 -157 c14
-36 26 -68 26 -73 0 -4 -25 -8 -55 -8 -30 0 -55 3 -55 7 0 11 53 144 56 141 1
-2 14 -32 28 -67z"/>
<path d="M1390 1564 c-84 -22 -158 -63 -222 -122 -109 -101 -193 -274 -205
-423 l-6 -69 317 0 316 0 -2 313 -3 312 -70 2 c-38 1 -95 -5 -125 -13z"/>
</g>
</svg>
