<svg version="1.0" xmlns="http://www.w3.org/2000/svg" width="1000" height="300.667" viewBox="0 0 986 446"><path d="M96 194.5V226h6c7.9 0 15.1-1.6 22.9-5.1 8.4-3.8 20.1-15.6 25.4-25.5 4.3-8.2 7.7-20.4 7.7-27.6V163H96v31.5zM428.1 223l-4.2 5h4.4c3.8 0 5.3-.7 10.7-5l6.3-5h-13l-4.2 5zM571.2 223c4.2 4.9 4.4 5 9.8 5s5.6-.1 9.8-5l4.3-5H591c-2.6 0-5.1.8-7 2.2l-3 2.2-3-2.2c-1.9-1.4-4.4-2.2-7-2.2h-4.1l4.3 5zM33 257v31h63v-5.9c0-15.2-4.6-26.1-15.8-37.1-5.9-5.7-9.7-8.5-16.2-11.7-8.8-4.3-19.9-7.3-26.9-7.3H33v31zM158.5 228.9c-.3 1.6-.1 6.5.4 10.8 2.3 16.8 13.2 31.5 29.8 40.1 9.2 4.8 21.1 8.2 28.5 8.2h4.8v-62h-62.8l-.7 2.9zM802.6 232.5c-15.4 5.5-21.2 22.8-12.3 36.2 10 14.9 34.2 14.6 44.3-.7 2-3 2.8-5.7 3.2-11 .4-6.1.1-7.6-2.2-12.5-2.9-5.8-7.9-10.1-14.5-12.3-4.6-1.6-13.7-1.4-18.5.3zm17.9 12.5c4.7 4.4 5.6 12.9 1.9 18.6-2.3 3.5-7.8 5.7-12.4 4.9-11.2-1.9-14.5-17.9-5-24.3 4.5-3.1 11.8-2.7 15.5.8zM265 255.5V279h36v-11h-23v-36h-13v23.5zM308 255.5V279h37v-11h-24v-8h21v-10h-21v-8h23v-10h-36v23.5zM352 255.5V279h13v-5.8c0-5.1.4-6.2 2.8-8.5l2.8-2.7 6.7 8.5 6.7 8.5h7.5c5.7 0 7.4-.3 6.9-1.2-.4-.7-5-6.6-10.1-13.2l-9.3-12.1 4.3-4.5c2.3-2.5 6.6-7.1 9.7-10.3l5.4-5.7h-14.9l-9.2 9.7-9.2 9.8-.1-9.8V232h-13v23.5zM414 253.6c-5.2 11.9-9.8 22.5-10.2 23.5-.7 1.7-.2 1.9 6 1.9h6.8l1.5-4.3 1.6-4.2 10.4-.3 10.5-.3 1.5 4.3 1.6 4.3 6.6.3c5 .2 6.7 0 6.6-1 0-.7-4.4-11.2-9.8-23.3l-9.9-22-6.8-.3-6.9-.2-9.5 21.6zm21.4 4.1c.7 2.2.5 2.3-5.3 2.3h-6l1.5-3.5c.7-1.9 2.1-5.2 3-7.3l1.6-3.7 2.3 5c1.2 2.7 2.5 6 2.9 7.2zM463 255.5V279h12.9l.3-6.3.3-6.2 3.6-.3c3.4-.3 3.8 0 7.9 6.2l4.2 6.6h6.9c3.8 0 6.9-.3 6.9-.6s-2-3.4-4.5-6.8c-2.5-3.5-4.5-6.6-4.5-7 0-.4 1.5-2 3.4-3.6 9.2-8.2 5.2-24.5-6.9-27.9-2.2-.6-10-1.1-17.2-1.1H463v23.5zm25.5-12.3c4.6 2.1 4.6 10.1-.1 11.8-1.4.6-4.8 1-7.5 1H476v-6.3c0-3.5.3-6.7.7-7 1.1-1.1 9-.8 11.8.5zM514 255.5V279h38.1l-.3-5.3-.3-5.2-12.2-.3-12.3-.3V260h21v-10h-21v-8h24v-10h-37v23.5zM559 255.5V279h12.9l.3-12.1.3-12.2 10 12.1 10 12.2H603v-47h-12.9l-.3 11.9-.3 11.9-9.8-11.9-9.8-11.9H559v23.5zM639 255.5V279h38v-11h-25v-8h21v-10h-21v-8h24v-10h-37v23.5zM683 246.3c0 17.6 1.3 22.9 6.9 28 7.4 6.7 21.7 7.3 29.8 1.1 6.3-4.8 7.5-8.7 8.1-27.1l.5-16.3H714v15c0 8.9-.5 15.9-1.1 17.4-2.3 4.9-9.7 5.8-13.9 1.6-1.8-1.8-2-3.4-2-18v-16h-14v14.3zM737 255.4V279h13v-13.1l3.7.3c3.3.3 4.2 1 8.1 6.5l4.3 6.3h7c5.4 0 6.8-.3 6.2-1.3-.4-.6-2.6-3.9-5-7.3l-4.2-6.1 3-2.2c5.7-4.2 7.6-13.7 4.2-20.8-.9-1.9-3.4-4.7-5.6-6.1-3.9-2.6-4.7-2.7-19.4-3l-15.3-.4v23.6zm27.1-10.5c2.6 3.1 2.4 5.7-.6 8.6-2 2.1-3.4 2.5-8 2.5H750v-14.2l6.1.4c4.9.4 6.6.9 8 2.7zM847 255.4V279h13v-11.7l7.9-.7c9-.8 15.3-3.5 18.5-7.9 1.6-2.2 2.1-4.4 2.1-9.1 0-7.5-1.5-10.6-6.8-14.3-3.9-2.7-4.5-2.8-19.4-3.1l-15.3-.4v23.6zm27.1-10.5c2.6 3.1 2.4 5.7-.6 8.6-2 2.1-3.4 2.5-8 2.5H860v-14.2l6.1.4c4.9.4 6.6.9 8 2.7zM907.1 236.2c-1 2.4-5.5 12.6-10 22.7-4.4 10.1-8.1 18.8-8.1 19.3 0 .4 2.9.8 6.4.8h6.4l1.8-4.5 1.7-4.5h20.5l1.8 4.5 1.7 4.5h6.9c3.8 0 6.8-.4 6.6-.9-.1-.4-4.8-11-10.3-23.4l-10-22.7h-13.6l-1.8 4.2zm11.3 15.7c1.4 3.6 2.6 6.8 2.6 7.3 0 .4-2.5.8-5.5.8s-5.5-.3-5.5-.7c0-1.1 5.3-14.4 5.6-14.1.1.2 1.4 3.2 2.8 6.7zM139 289.6c-8.4 2.2-15.8 6.3-22.2 12.2-10.9 10.1-19.3 27.4-20.5 42.3l-.6 6.9H159l-.2-31.3-.3-31.2-7-.2c-3.8-.1-9.5.5-12.5 1.3z"/></svg>